# Blender v2.93.6 OBJ File: ''
# www.blender.org
mtllib anticline_side_2.mtl
o anticline_joined_bb.004_anticline_joined_bb.005
v 0.990008 0.208598 -0.918654
v 0.990008 0.406262 -0.762558
v 0.990008 0.208841 -0.255000
v 0.990008 0.406203 -0.255000
v 0.990008 0.408618 -0.500000
v 0.990008 0.209002 -0.500000
v 0.990008 0.412046 -0.010000
v 0.990008 0.208725 -0.010000
v 0.990008 0.208677 -0.183591
v 0.990008 0.411472 -0.023442
v 0.990008 0.208986 -0.673348
v 0.990008 0.408577 -0.515729
v 0.990008 0.406203 -0.745000
v 0.990008 0.208841 -0.745000
v 0.990008 0.209052 -0.428296
v 0.990008 0.406197 -0.272608
v 0.990008 0.208725 -0.990000
v 0.990008 0.412046 -0.990000
v 0.990008 0.408618 -0.510000
v 0.990008 0.209002 -0.510000
v 0.990008 0.209017 -0.530000
v 0.990008 0.209036 -0.550000
v 0.990008 0.209051 -0.570000
v 0.990008 0.209058 -0.590000
v 0.990008 0.209056 -0.610000
v 0.990008 0.209043 -0.630000
v 0.990008 0.209021 -0.650000
v 0.990008 0.208992 -0.670000
v 0.990008 0.406207 -0.750000
v 0.990008 0.208830 -0.750000
v 0.990008 0.208784 -0.770000
v 0.990008 0.208737 -0.790000
v 0.990008 0.208691 -0.810000
v 0.990008 0.208648 -0.830000
v 0.990008 0.208611 -0.850000
v 0.990008 0.208584 -0.870000
v 0.990008 0.208573 -0.890000
v 0.990008 0.208585 -0.910000
v 0.990008 0.406190 -0.270000
v 0.990008 0.208875 -0.270000
v 0.990008 0.208918 -0.290000
v 0.990008 0.208957 -0.310000
v 0.990008 0.208992 -0.330000
v 0.990008 0.209021 -0.350000
v 0.990008 0.209043 -0.370000
v 0.990008 0.209056 -0.390000
v 0.990008 0.209058 -0.410000
v 0.990008 0.411192 -0.030000
v 0.990008 0.410395 -0.050000
v 0.990008 0.410000 -0.060733
v 0.990008 0.409659 -0.070000
v 0.990008 0.408986 -0.090000
v 0.990008 0.408381 -0.110000
v 0.990008 0.407846 -0.130000
v 0.990008 0.407384 -0.150000
v 0.990008 0.406997 -0.170000
v 0.990008 0.406687 -0.190000
v 0.990008 0.406453 -0.210000
v 0.990008 0.406294 -0.230000
v 0.990008 0.406207 -0.250000
v 0.990008 0.208691 -0.190000
v 0.990008 0.208737 -0.210000
v 0.990008 0.208784 -0.230000
v 0.990008 0.208830 -0.250000
v 0.990008 0.406294 -0.770000
v 0.990008 0.406453 -0.790000
v 0.990008 0.406687 -0.810000
v 0.990008 0.406997 -0.830000
v 0.990008 0.407384 -0.850000
v 0.990008 0.407846 -0.870000
v 0.990008 0.408381 -0.890000
v 0.990008 0.408986 -0.910000
v 0.990008 0.409659 -0.930000
v 0.990008 0.410000 -0.939267
v 0.990008 0.410395 -0.950000
v 0.990008 0.411192 -0.970000
v 0.990008 0.208616 -0.930000
v 0.990008 0.208656 -0.950000
v 0.990008 0.208696 -0.970000
v 0.990008 0.408476 -0.530000
v 0.990008 0.408235 -0.550000
v 0.990008 0.407938 -0.570000
v 0.990008 0.407618 -0.590000
v 0.990008 0.407299 -0.610000
v 0.990008 0.407001 -0.630000
v 0.990008 0.406738 -0.650000
v 0.990008 0.406518 -0.670000
v 0.990008 0.406350 -0.690000
v 0.990008 0.406239 -0.710000
v 0.990008 0.406190 -0.730000
v 0.990008 0.208957 -0.690000
v 0.990008 0.208918 -0.710000
v 0.990008 0.208875 -0.730000
v 0.990008 0.208696 -0.030000
v 0.990008 0.208656 -0.050000
v 0.990008 0.208616 -0.070000
v 0.990008 0.208585 -0.090000
v 0.990008 0.208573 -0.110000
v 0.990008 0.208584 -0.130000
v 0.990008 0.208611 -0.150000
v 0.990008 0.208648 -0.170000
v 0.990008 0.406239 -0.290000
v 0.990008 0.406350 -0.310000
v 0.990008 0.406518 -0.330000
v 0.990008 0.406738 -0.350000
v 0.990008 0.407001 -0.370000
v 0.990008 0.407299 -0.390000
v 0.990008 0.407618 -0.410000
v 0.990008 0.407938 -0.430000
v 0.990008 0.408235 -0.450000
v 0.990008 0.408476 -0.470000
v 0.990008 0.408618 -0.490000
v 0.990008 0.209051 -0.430000
v 0.990008 0.209036 -0.450000
v 0.990008 0.209017 -0.470000
v 0.990008 0.209002 -0.490000
vt 0.000000 0.000000
vt 0.000000 0.000000
vt 0.000000 0.000000
vt 0.000000 0.000000
vt 0.000000 0.000000
vt 0.000000 0.000000
vt 0.000000 0.000000
vt 0.000000 0.000000
vt 0.000000 0.000000
vt 0.000000 0.000000
vt 0.000000 0.000000
vt 0.000000 0.000000
vt 0.000000 0.000000
vt 0.000000 0.000000
vt 0.000000 0.000000
vt 0.000000 0.000000
vt 0.000000 0.000000
vt 0.000000 0.000000
vt 0.000000 0.000000
vt 0.000000 0.000000
vt 0.000000 0.000000
vt 0.000000 0.000000
vt 0.000000 0.000000
vt 0.000000 0.000000
vt 0.000000 0.000000
vt 0.000000 0.000000
vt 0.000000 0.000000
vt 0.000000 0.000000
vt 0.000000 0.000000
vt 0.000000 0.000000
vt 0.000000 0.000000
vt 0.000000 0.000000
vt 0.000000 0.000000
vt 0.000000 0.000000
vt 0.000000 0.000000
vt 0.000000 0.000000
vt 0.000000 0.000000
vt 0.000000 0.000000
vt 0.000000 0.000000
vt 0.000000 0.000000
vt 0.000000 0.000000
vt 0.000000 0.000000
vt 0.000000 0.000000
vt 0.000000 0.000000
vt 0.000000 0.000000
vt 0.000000 0.000000
vt 0.000000 0.000000
vt 0.000000 0.000000
vt 0.000000 0.000000
vt 0.000000 0.000000
vt 0.000000 0.000000
vt 0.000000 0.000000
vt 0.000000 0.000000
vt 0.000000 0.000000
vt 0.000000 0.000000
vt 0.000000 0.000000
vt 0.000000 0.000000
vt 0.000000 0.000000
vt 0.000000 0.000000
vt 0.000000 0.000000
vt 0.000000 0.000000
vt 0.000000 0.000000
vt 0.000000 0.000000
vt 0.000000 0.000000
vt 0.000000 0.000000
vt 0.000000 0.000000
vt 0.000000 0.000000
vt 0.000000 0.000000
vt 0.000000 0.000000
vt 0.000000 0.000000
vt 0.000000 0.000000
vt 0.000000 0.000000
vt 0.000000 0.000000
vt 0.000000 0.000000
vt 0.000000 0.000000
vt 0.000000 0.000000
vt 0.000000 0.000000
vt 0.000000 0.000000
vt 0.000000 0.000000
vt 0.000000 0.000000
vt 0.000000 0.000000
vt 0.000000 0.000000
vt 0.000000 0.000000
vt 0.000000 0.000000
vt 0.000000 0.000000
vt 0.000000 0.000000
vt 0.000000 0.000000
vt 0.000000 0.000000
vt 0.000000 0.000000
vt 0.000000 0.000000
vt 0.000000 0.000000
vt 0.000000 0.000000
vt 0.000000 0.000000
vt 0.000000 0.000000
vt 0.000000 0.000000
vt 0.000000 0.000000
vt 0.000000 0.000000
vt 0.000000 0.000000
vt 0.000000 0.000000
vt 0.000000 0.000000
vt 0.000000 0.000000
vt 0.000000 0.000000
vt 0.000000 0.000000
vt 0.000000 0.000000
vt 0.000000 0.000000
vt 0.000000 0.000000
vt 0.000000 0.000000
vt 0.000000 0.000000
vt 0.000000 0.000000
vt 0.000000 0.000000
vt 0.000000 0.000000
vt 0.000000 0.000000
vt 0.000000 0.000000
vt 0.000000 0.000000
vt 0.000000 0.000000
vt 0.000000 0.000000
vn -1.0000 0.0000 0.0000
usemtl Default_OBJ.003
s 1
f 12/1/1 25/2/1 24/3/1
f 30/4/1 14/5/1 29/6/1
f 16/7/1 44/8/1 43/9/1
f 58/10/1 59/11/1 62/12/1
f 70/13/1 71/14/1 1/15/1
f 11/16/1 85/17/1 86/18/1
f 94/19/1 7/20/1 10/21/1
f 7/20/1 94/19/1 8/22/1
f 107/23/1 108/24/1 15/25/1
f 12/1/1 11/16/1 28/26/1
f 12/1/1 28/26/1 27/27/1
f 5/28/1 19/29/1 20/30/1
f 19/29/1 12/1/1 20/30/1
f 20/30/1 12/1/1 21/31/1
f 20/30/1 6/32/1 5/28/1
f 22/33/1 21/31/1 12/1/1
f 12/1/1 27/27/1 26/34/1
f 12/1/1 26/34/1 25/2/1
f 23/35/1 22/33/1 12/1/1
f 24/3/1 23/35/1 12/1/1
f 2/36/1 1/15/1 38/37/1
f 38/37/1 37/38/1 2/36/1
f 37/38/1 36/39/1 2/36/1
f 36/39/1 35/40/1 2/36/1
f 35/40/1 34/41/1 2/36/1
f 34/41/1 33/42/1 2/36/1
f 33/42/1 32/43/1 2/36/1
f 2/36/1 32/43/1 31/44/1
f 2/36/1 31/44/1 30/4/1
f 29/6/1 2/36/1 30/4/1
f 14/5/1 13/45/1 29/6/1
f 3/46/1 4/47/1 40/48/1
f 4/47/1 39/49/1 40/48/1
f 39/49/1 16/7/1 40/48/1
f 16/7/1 15/25/1 47/50/1
f 16/7/1 47/50/1 46/51/1
f 41/52/1 40/48/1 16/7/1
f 16/7/1 46/51/1 45/53/1
f 16/7/1 45/53/1 44/8/1
f 42/54/1 41/52/1 16/7/1
f 43/9/1 42/54/1 16/7/1
f 9/55/1 10/21/1 48/56/1
f 49/57/1 50/58/1 9/55/1
f 50/58/1 51/59/1 9/55/1
f 9/55/1 48/56/1 49/57/1
f 62/12/1 61/60/1 58/10/1
f 61/60/1 9/55/1 57/61/1
f 57/61/1 9/55/1 56/62/1
f 63/63/1 62/12/1 59/11/1
f 54/64/1 9/55/1 53/65/1
f 9/55/1 51/59/1 52/66/1
f 9/55/1 54/64/1 55/67/1
f 9/55/1 52/66/1 53/65/1
f 4/47/1 3/46/1 60/68/1
f 3/46/1 64/69/1 60/68/1
f 64/69/1 63/63/1 60/68/1
f 9/55/1 55/67/1 56/62/1
f 59/11/1 60/68/1 63/63/1
f 61/60/1 57/61/1 58/10/1
f 18/70/1 17/71/1 76/72/1
f 17/71/1 79/73/1 76/72/1
f 78/74/1 77/75/1 74/76/1
f 77/75/1 1/15/1 73/77/1
f 72/78/1 1/15/1 71/14/1
f 79/73/1 78/74/1 75/79/1
f 76/72/1 79/73/1 75/79/1
f 1/15/1 72/78/1 73/77/1
f 1/15/1 2/36/1 65/80/1
f 1/15/1 65/80/1 66/81/1
f 73/77/1 74/76/1 77/75/1
f 74/76/1 75/79/1 78/74/1
f 1/15/1 66/81/1 67/82/1
f 1/15/1 67/82/1 68/83/1
f 1/15/1 68/83/1 69/84/1
f 1/15/1 69/84/1 70/13/1
f 13/45/1 14/5/1 93/85/1
f 13/45/1 93/85/1 90/86/1
f 93/85/1 92/87/1 90/86/1
f 91/88/1 11/16/1 88/89/1
f 11/16/1 12/1/1 80/90/1
f 90/86/1 92/87/1 89/91/1
f 92/87/1 91/88/1 89/91/1
f 11/16/1 80/90/1 81/92/1
f 81/92/1 82/93/1 11/16/1
f 11/16/1 82/93/1 83/94/1
f 11/16/1 83/94/1 84/95/1
f 88/89/1 89/91/1 91/88/1
f 87/96/1 88/89/1 11/16/1
f 11/16/1 84/95/1 85/17/1
f 86/18/1 87/96/1 11/16/1
f 10/21/1 9/55/1 101/97/1
f 101/97/1 100/98/1 10/21/1
f 100/98/1 99/99/1 10/21/1
f 99/99/1 98/100/1 10/21/1
f 98/100/1 97/101/1 10/21/1
f 97/101/1 96/102/1 10/21/1
f 96/102/1 95/103/1 10/21/1
f 10/21/1 95/103/1 94/19/1
f 15/25/1 16/7/1 102/104/1
f 15/25/1 102/104/1 103/105/1
f 113/106/1 15/25/1 109/107/1
f 15/25/1 103/105/1 104/108/1
f 15/25/1 104/108/1 105/109/1
f 116/110/1 115/111/1 111/112/1
f 115/111/1 114/113/1 110/114/1
f 114/113/1 113/106/1 109/107/1
f 15/25/1 105/109/1 106/115/1
f 15/25/1 106/115/1 107/23/1
f 6/32/1 116/110/1 112/116/1
f 115/111/1 110/114/1 111/112/1
f 112/116/1 5/28/1 6/32/1
f 111/112/1 112/116/1 116/110/1
f 108/24/1 109/107/1 15/25/1
f 109/107/1 110/114/1 114/113/1
