# Blender v2.93.6 OBJ File: ''
# www.blender.org
mtllib anticline_side_4.mtl
o anticline_joined_bb.007_anticline_joined_bb.008
v 0.500008 0.738737 -0.990000
v 0.764376 0.428495 -0.990000
v 0.970000 0.428495 -0.990000
v 0.745008 0.448283 -0.990000
v 0.745008 0.663251 -0.990000
v 0.387416 0.571069 -0.990000
v 0.286780 0.698504 -0.990000
v 0.990008 0.412046 -0.990000
v 0.990008 0.208725 -0.990000
v 0.500008 0.809834 -0.990000
v 0.255008 0.663269 -0.990000
v 0.255008 0.448299 -0.990000
v 0.157266 0.552266 -0.990000
v 0.246340 0.439472 -0.990000
v 0.330000 0.738737 -0.990000
v 0.328607 0.738737 -0.990000
v 0.500008 0.611853 -0.990000
v 0.010008 0.412053 -0.990000
v 0.010008 0.208732 -0.990000
v 0.448593 0.803843 -0.990000
v 0.670263 0.523145 -0.990000
v 0.671796 0.521203 -0.990000
v 0.235624 0.428495 -0.990000
v 0.030000 0.428495 -0.990000
v 0.670000 0.738737 -0.990000
v 0.017709 0.418743 -0.990000
v 0.110609 0.301105 -0.990000
v 0.662230 0.530000 -0.990000
v 0.650000 0.541185 -0.990000
v 0.639519 0.550000 -0.990000
v 0.630000 0.558003 -0.990000
v 0.614019 0.570000 -0.990000
v 0.610000 0.572993 -0.990000
v 0.590000 0.585770 -0.990000
v 0.581923 0.590000 -0.990000
v 0.570000 0.596130 -0.990000
v 0.550000 0.603962 -0.990000
v 0.530000 0.609244 -0.990000
v 0.524311 0.610000 -0.990000
v 0.510000 0.611853 -0.990000
v 0.750000 0.657546 -0.990000
v 0.756432 0.650000 -0.990000
v 0.770000 0.634151 -0.990000
v 0.773513 0.630000 -0.990000
v 0.790000 0.610776 -0.990000
v 0.808166 0.590000 -0.990000
v 0.810000 0.587948 -0.990000
v 0.826204 0.570000 -0.990000
v 0.830000 0.565882 -0.990000
v 0.844854 0.550000 -0.990000
v 0.850000 0.544593 -0.990000
v 0.864125 0.530000 -0.990000
v 0.870000 0.524012 -0.990000
v 0.883999 0.510000 -0.990000
v 0.890000 0.504049 -0.990000
v 0.904451 0.490000 -0.990000
v 0.910000 0.484635 -0.990000
v 0.925473 0.470000 -0.990000
v 0.930000 0.465729 -0.990000
v 0.947088 0.450000 -0.990000
v 0.950000 0.447321 -0.990000
v 0.969353 0.430000 -0.990000
v 0.762901 0.430000 -0.990000
v 0.750000 0.443223 -0.990000
v 0.290000 0.701962 -0.990000
v 0.297944 0.710000 -0.990000
v 0.310000 0.721937 -0.990000
v 0.318806 0.730000 -0.990000
v 0.490000 0.611853 -0.990000
v 0.475689 0.610000 -0.990000
v 0.470000 0.609244 -0.990000
v 0.450000 0.603962 -0.990000
v 0.430000 0.596130 -0.990000
v 0.418077 0.590000 -0.990000
v 0.410000 0.585770 -0.990000
v 0.390000 0.572993 -0.990000
v 0.510000 0.809834 -0.990000
v 0.530000 0.807973 -0.990000
v 0.550000 0.804239 -0.990000
v 0.570000 0.798614 -0.990000
v 0.590000 0.791073 -0.990000
v 0.592287 0.790000 -0.990000
v 0.610000 0.781436 -0.990000
v 0.629650 0.770000 -0.990000
v 0.650000 0.755939 -0.990000
v 0.657583 0.750000 -0.990000
v 0.260898 0.670000 -0.990000
v 0.270000 0.680345 -0.990000
v 0.278861 0.690000 -0.990000
v 0.385981 0.570000 -0.990000
v 0.370000 0.558003 -0.990000
v 0.360481 0.550000 -0.990000
v 0.350000 0.541185 -0.990000
v 0.337770 0.530000 -0.990000
v 0.330000 0.522937 -0.990000
v 0.316604 0.510000 -0.990000
v 0.310000 0.503688 -0.990000
v 0.296273 0.490000 -0.990000
v 0.290000 0.483817 -0.990000
v 0.276375 0.470000 -0.990000
v 0.270000 0.463605 -0.990000
v 0.256686 0.450000 -0.990000
v 0.155147 0.550000 -0.990000
v 0.150000 0.544593 -0.990000
v 0.135875 0.530000 -0.990000
v 0.130000 0.524012 -0.990000
v 0.116001 0.510000 -0.990000
v 0.110000 0.504049 -0.990000
v 0.095549 0.490000 -0.990000
v 0.090000 0.484635 -0.990000
v 0.074527 0.470000 -0.990000
v 0.070000 0.465729 -0.990000
v 0.052913 0.450000 -0.990000
v 0.050000 0.447321 -0.990000
v 0.030647 0.430000 -0.990000
v 0.237099 0.430000 -0.990000
v 0.230000 0.422756 -0.990000
v 0.217572 0.410000 -0.990000
v 0.210000 0.402236 -0.990000
v 0.198087 0.390000 -0.990000
v 0.190000 0.381683 -0.990000
v 0.178611 0.370000 -0.990000
v 0.170000 0.361145 -0.990000
v 0.159086 0.350000 -0.990000
v 0.150000 0.340700 -0.990000
v 0.139424 0.330000 -0.990000
v 0.130000 0.320448 -0.990000
v 0.119523 0.310000 -0.990000
v 0.950000 0.243479 -0.990000
v 0.942909 0.250000 -0.990000
v 0.930000 0.261915 -0.990000
v 0.921496 0.270000 -0.990000
v 0.910000 0.280952 -0.990000
v 0.900738 0.290000 -0.990000
v 0.890000 0.300497 -0.990000
v 0.880477 0.310000 -0.990000
v 0.870000 0.320448 -0.990000
v 0.860576 0.330000 -0.990000
v 0.850000 0.340700 -0.990000
v 0.840914 0.350000 -0.990000
v 0.830000 0.361145 -0.990000
v 0.821389 0.370000 -0.990000
v 0.810000 0.381683 -0.990000
v 0.801913 0.390000 -0.990000
v 0.790000 0.402236 -0.990000
v 0.782428 0.410000 -0.990000
v 0.770000 0.422756 -0.990000
v 0.965167 0.230000 -0.990000
v 0.970000 0.225727 -0.990000
v 0.988491 0.210000 -0.990000
v 0.681194 0.730000 -0.990000
v 0.690000 0.721937 -0.990000
v 0.702056 0.710000 -0.990000
v 0.710000 0.701962 -0.990000
v 0.721139 0.690000 -0.990000
v 0.730000 0.680345 -0.990000
v 0.739103 0.670000 -0.990000
v 0.743314 0.450000 -0.990000
v 0.730000 0.463605 -0.990000
v 0.723625 0.470000 -0.990000
v 0.710000 0.483817 -0.990000
v 0.703727 0.490000 -0.990000
v 0.690000 0.503688 -0.990000
v 0.683397 0.510000 -0.990000
v 0.450000 0.804239 -0.990000
v 0.470000 0.807973 -0.990000
v 0.490000 0.809834 -0.990000
v 0.342417 0.750000 -0.990000
v 0.350000 0.755939 -0.990000
v 0.370000 0.769790 -0.990000
v 0.390000 0.781436 -0.990000
v 0.407713 0.790000 -0.990000
v 0.410000 0.791073 -0.990000
v 0.430000 0.798614 -0.990000
v 0.243568 0.650000 -0.990000
v 0.230000 0.634151 -0.990000
v 0.226487 0.630000 -0.990000
v 0.210000 0.610776 -0.990000
v 0.191834 0.590000 -0.990000
v 0.190000 0.587948 -0.990000
v 0.173796 0.570000 -0.990000
v 0.170000 0.565882 -0.990000
v 0.250000 0.657546 -0.990000
v 0.250000 0.443223 -0.990000
v 0.099262 0.290000 -0.990000
v 0.090000 0.280952 -0.990000
v 0.078504 0.270000 -0.990000
v 0.070000 0.261915 -0.990000
v 0.057091 0.250000 -0.990000
v 0.050000 0.243479 -0.990000
v 0.034833 0.230000 -0.990000
v 0.030000 0.225727 -0.990000
v 0.011509 0.210000 -0.990000
vt 0.000000 0.000000
vt 0.000000 0.000000
vt 0.000000 0.000000
vt 0.000000 0.000000
vt 0.000000 0.000000
vt 0.000000 0.000000
vt 0.000000 0.000000
vt 0.000000 0.000000
vt 0.000000 0.000000
vt 0.000000 0.000000
vt 0.000000 0.000000
vt 0.000000 0.000000
vt 0.000000 0.000000
vt 0.000000 0.000000
vt 0.000000 0.000000
vt 0.000000 0.000000
vt 0.000000 0.000000
vt 0.000000 0.000000
vt 0.000000 0.000000
vt 0.000000 0.000000
vt 0.000000 0.000000
vt 0.000000 0.000000
vt 0.000000 0.000000
vt 0.000000 0.000000
vt 0.000000 0.000000
vt 0.000000 0.000000
vt 0.000000 0.000000
vt 0.000000 0.000000
vt 0.000000 0.000000
vt 0.000000 0.000000
vt 0.000000 0.000000
vt 0.000000 0.000000
vt 0.000000 0.000000
vt 0.000000 0.000000
vt 0.000000 0.000000
vt 0.000000 0.000000
vt 0.000000 0.000000
vt 0.000000 0.000000
vt 0.000000 0.000000
vt 0.000000 0.000000
vt 0.000000 0.000000
vt 0.000000 0.000000
vt 0.000000 0.000000
vt 0.000000 0.000000
vt 0.000000 0.000000
vt 0.000000 0.000000
vt 0.000000 0.000000
vt 0.000000 0.000000
vt 0.000000 0.000000
vt 0.000000 0.000000
vt 0.000000 0.000000
vt 0.000000 0.000000
vt 0.000000 0.000000
vt 0.000000 0.000000
vt 0.000000 0.000000
vt 0.000000 0.000000
vt 0.000000 0.000000
vt 0.000000 0.000000
vt 0.000000 0.000000
vt 0.000000 0.000000
vt 0.000000 0.000000
vt 0.000000 0.000000
vt 0.000000 0.000000
vt 0.000000 0.000000
vt 0.000000 0.000000
vt 0.000000 0.000000
vt 0.000000 0.000000
vt 0.000000 0.000000
vt 0.000000 0.000000
vt 0.000000 0.000000
vt 0.000000 0.000000
vt 0.000000 0.000000
vt 0.000000 0.000000
vt 0.000000 0.000000
vt 0.000000 0.000000
vt 0.000000 0.000000
vt 0.000000 0.000000
vt 0.000000 0.000000
vt 0.000000 0.000000
vt 0.000000 0.000000
vt 0.000000 0.000000
vt 0.000000 0.000000
vt 0.000000 0.000000
vt 0.000000 0.000000
vt 0.000000 0.000000
vt 0.000000 0.000000
vt 0.000000 0.000000
vt 0.000000 0.000000
vt 0.000000 0.000000
vt 0.000000 0.000000
vt 0.000000 0.000000
vt 0.000000 0.000000
vt 0.000000 0.000000
vt 0.000000 0.000000
vt 0.000000 0.000000
vt 0.000000 0.000000
vt 0.000000 0.000000
vt 0.000000 0.000000
vt 0.000000 0.000000
vt 0.000000 0.000000
vt 0.000000 0.000000
vt 0.000000 0.000000
vt 0.000000 0.000000
vt 0.000000 0.000000
vt 0.000000 0.000000
vt 0.000000 0.000000
vt 0.000000 0.000000
vt 0.000000 0.000000
vt 0.000000 0.000000
vt 0.000000 0.000000
vt 0.000000 0.000000
vt 0.000000 0.000000
vt 0.000000 0.000000
vt 0.000000 0.000000
vt 0.000000 0.000000
vt 0.000000 0.000000
vt 0.000000 0.000000
vt 0.000000 0.000000
vt 0.000000 0.000000
vt 0.000000 0.000000
vt 0.000000 0.000000
vt 0.000000 0.000000
vt 0.000000 0.000000
vt 0.000000 0.000000
vt 0.000000 0.000000
vt 0.000000 0.000000
vt 0.000000 0.000000
vt 0.000000 0.000000
vt 0.000000 0.000000
vt 0.000000 0.000000
vt 0.000000 0.000000
vt 0.000000 0.000000
vt 0.000000 0.000000
vt 0.000000 0.000000
vt 0.000000 0.000000
vt 0.000000 0.000000
vt 0.000000 0.000000
vt 0.000000 0.000000
vt 0.000000 0.000000
vt 0.000000 0.000000
vt 0.000000 0.000000
vt 0.000000 0.000000
vt 0.000000 0.000000
vt 0.000000 0.000000
vt 0.000000 0.000000
vt 0.000000 0.000000
vt 0.000000 0.000000
vt 0.000000 0.000000
vt 0.000000 0.000000
vt 0.000000 0.000000
vt 0.000000 0.000000
vt 0.000000 0.000000
vt 0.000000 0.000000
vt 0.000000 0.000000
vt 0.000000 0.000000
vt 0.000000 0.000000
vt 0.000000 0.000000
vt 0.000000 0.000000
vt 0.000000 0.000000
vt 0.000000 0.000000
vt 0.000000 0.000000
vt 0.000000 0.000000
vt 0.000000 0.000000
vt 0.000000 0.000000
vt 0.000000 0.000000
vt 0.000000 0.000000
vt 0.000000 0.000000
vt 0.000000 0.000000
vt 0.000000 0.000000
vt 0.000000 0.000000
vt 0.000000 0.000000
vt 0.000000 0.000000
vt 0.000000 0.000000
vt 0.000000 0.000000
vt 0.000000 0.000000
vt 0.000000 0.000000
vt 0.000000 0.000000
vt 0.000000 0.000000
vt 0.000000 0.000000
vt 0.000000 0.000000
vt 0.000000 0.000000
vt 0.000000 0.000000
vt 0.000000 0.000000
vt 0.000000 0.000000
vt 0.000000 0.000000
vt 0.000000 0.000000
vt 0.000000 0.000000
vt 0.000000 0.000000
vt 0.000000 0.000000
vt 0.000000 0.000000
vt 0.000000 0.000000
vt 0.000000 0.000000
vt 0.000000 0.000000
vn -0.0000 -0.0000 1.0000
vn 0.0001 -0.0000 1.0000
vn -0.0001 0.0000 1.0000
usemtl Default_OBJ.005
s 1
f 1/1/1 34/2/1 33/3/2
f 67/4/1 66/5/1 75/6/1
f 68/7/1 67/4/1 75/6/1
f 15/8/1 16/9/1 68/7/1
f 2/10/1 54/11/1 53/12/1
f 2/10/1 55/13/1 54/11/1
f 50/14/1 4/15/1 51/16/1
f 49/17/1 4/15/1 50/14/1
f 2/10/1 56/18/1 55/13/1
f 2/10/1 57/19/1 56/18/1
f 48/20/1 4/15/1 49/17/1
f 47/21/1 4/15/1 48/20/1
f 2/10/1 58/22/1 57/19/1
f 2/10/1 59/23/1 58/22/1
f 46/24/1 4/15/1 47/21/1
f 1/1/1 38/25/1 37/26/1
f 45/27/1 4/15/1 46/24/1
f 2/10/1 60/28/1 59/23/1
f 2/10/1 61/29/1 60/28/1
f 51/16/1 64/30/1 52/31/1
f 43/32/1 42/33/1 4/15/1
f 44/34/1 43/32/1 4/15/1
f 42/33/1 41/35/1 4/15/1
f 44/34/1 4/15/1 45/27/1
f 5/36/1 4/15/1 41/35/1
f 64/30/1 51/16/1 4/15/1
f 63/37/1 2/10/1 52/31/1
f 64/30/1 63/37/1 52/31/1
f 3/38/1 62/39/1 61/29/1
f 2/10/1 3/38/1 61/29/1
f 1/1/1 35/40/1 34/2/1
f 33/3/2 32/41/1 1/1/1
f 72/42/1 15/8/1 73/43/1
f 21/44/1 28/45/1 22/46/1
f 32/41/1 31/47/1 1/1/1
f 2/10/1 53/12/1 52/31/1
f 1/1/1 39/48/1 38/25/1
f 75/6/1 74/49/1 68/7/1
f 1/1/1 36/50/1 35/40/1
f 77/51/1 10/52/1 1/1/1
f 92/53/1 91/54/1 11/55/1
f 1/1/1 37/26/1 36/50/1
f 108/56/1 109/57/1 23/58/1
f 21/44/1 1/1/1 29/59/1
f 23/58/1 24/60/1 117/61/1
f 28/45/1 21/44/1 29/59/1
f 150/62/2 9/63/2 8/64/1
f 1/1/1 40/65/1 39/48/1
f 164/66/1 163/67/1 5/36/1
f 31/47/1 30/68/1 1/1/1
f 165/69/1 20/70/1 1/1/1
f 168/71/1 15/8/1 1/1/1
f 15/8/1 168/71/1 16/9/1
f 180/72/1 181/73/1 12/74/1
f 1/1/1 17/75/1 40/65/1
f 185/76/1 27/77/1 18/78/1
f 30/68/1 29/59/1 1/1/1
f 66/5/1 65/79/1 76/80/1
f 65/79/1 7/81/1 76/80/1
f 66/5/1 76/80/1 75/6/1
f 7/81/1 6/82/1 76/80/1
f 15/8/1 72/42/1 1/1/1
f 15/8/1 68/7/1 74/49/1
f 1/1/1 71/83/1 70/84/1
f 69/85/1 17/75/1 1/1/1
f 70/84/1 69/85/1 1/1/1
f 71/83/1 1/1/1 72/42/1
f 73/43/1 15/8/1 74/49/1
f 1/1/1 25/86/1 86/87/1
f 86/87/1 85/88/1 1/1/1
f 85/88/1 84/89/1 1/1/1
f 84/89/1 83/90/1 1/1/1
f 83/90/1 82/91/1 1/1/1
f 82/91/1 81/92/1 1/1/1
f 81/92/1 80/93/1 1/1/1
f 80/93/1 79/94/1 1/1/1
f 79/94/1 78/95/1 1/1/1
f 78/95/1 77/51/1 1/1/1
f 6/82/1 7/81/1 89/96/1
f 89/96/1 88/97/1 90/98/1
f 88/97/1 87/99/1 91/54/1
f 89/96/1 90/98/1 6/82/1
f 87/99/1 11/55/1 91/54/1
f 11/55/1 12/74/1 102/100/1
f 101/101/1 11/55/1 102/100/1
f 101/101/1 100/102/1 11/55/1
f 100/102/1 99/103/1 11/55/1
f 99/103/1 98/104/1 11/55/1
f 98/104/1 97/105/1 11/55/1
f 97/105/1 96/106/1 11/55/1
f 96/106/1 95/107/1 11/55/1
f 95/107/1 94/108/1 11/55/1
f 94/108/1 93/109/1 11/55/1
f 11/55/1 93/109/1 92/53/1
f 90/98/1 88/97/1 91/54/1
f 14/110/1 13/111/1 103/112/1
f 14/110/1 103/112/1 104/113/1
f 23/58/1 116/114/1 105/115/1
f 116/114/1 14/110/1 105/115/1
f 105/115/1 14/110/1 104/113/1
f 115/116/1 24/60/1 114/117/1
f 24/60/1 23/58/1 114/117/1
f 113/118/1 114/117/1 23/58/1
f 112/119/1 113/118/1 23/58/1
f 23/58/1 105/115/1 106/120/1
f 23/58/1 106/120/1 107/121/1
f 111/122/1 112/119/1 23/58/1
f 110/123/1 111/122/1 23/58/1
f 23/58/1 107/121/1 108/56/1
f 109/57/1 110/123/1 23/58/1
f 26/124/1 27/77/1 128/125/1
f 128/125/1 127/126/1 24/60/1
f 127/126/1 126/127/1 24/60/1
f 128/125/1 24/60/1 26/124/1
f 126/127/1 125/128/1 24/60/1
f 125/128/1 124/129/1 24/60/1
f 124/129/1 123/130/1 24/60/1
f 123/130/1 122/131/1 24/60/1
f 122/131/1 121/132/1 24/60/1
f 121/132/1 120/133/1 24/60/1
f 119/134/1 118/135/1 24/60/1
f 118/135/1 117/61/1 24/60/1
f 119/134/1 24/60/1 120/133/1
f 3/38/1 2/10/1 147/136/1
f 147/136/1 146/137/1 3/38/1
f 146/137/1 145/138/1 3/38/1
f 144/139/1 143/140/1 3/38/1
f 143/140/1 142/141/1 3/38/1
f 145/138/1 144/139/1 3/38/1
f 142/141/1 141/142/1 3/38/1
f 141/142/1 140/143/1 3/38/1
f 140/143/1 139/144/1 3/38/1
f 139/144/1 138/145/1 3/38/1
f 138/145/1 137/146/1 3/38/1
f 137/146/1 136/147/1 3/38/1
f 3/38/1 136/147/1 8/64/1
f 136/147/1 135/148/1 8/64/1
f 135/148/1 134/149/1 8/64/1
f 134/149/1 133/150/1 8/64/1
f 133/150/1 132/151/1 8/64/1
f 132/151/1 131/152/1 8/64/1
f 131/152/1 130/153/1 8/64/1
f 130/153/1 129/154/1 8/64/1
f 129/154/1 148/155/1 8/64/1
f 148/155/1 149/156/1 8/64/1
f 149/156/1 150/62/2 8/64/1
f 4/15/1 5/36/1 158/157/3
f 5/36/1 157/158/1 21/44/1
f 159/159/1 5/36/1 160/160/1
f 157/158/1 156/161/1 21/44/1
f 156/161/1 155/162/1 21/44/1
f 155/162/1 154/163/1 21/44/1
f 154/163/1 153/164/1 21/44/1
f 153/164/1 152/165/1 21/44/1
f 152/165/1 151/166/1 21/44/1
f 151/166/1 25/86/1 21/44/1
f 25/86/1 1/1/1 21/44/1
f 21/44/1 22/46/1 164/66/1
f 5/36/1 159/159/1 158/157/3
f 5/36/1 161/167/1 160/160/1
f 163/67/1 162/168/1 5/36/1
f 162/168/1 161/167/1 5/36/1
f 21/44/1 164/66/1 5/36/1
f 1/1/1 10/52/1 167/169/1
f 167/169/1 166/170/1 1/1/1
f 166/170/1 165/69/1 1/1/1
f 1/1/1 20/70/1 174/171/1
f 174/171/1 173/172/1 1/1/1
f 173/172/1 172/173/1 1/1/1
f 172/173/1 171/174/1 1/1/1
f 171/174/1 170/175/1 1/1/1
f 170/175/1 169/176/1 1/1/1
f 169/176/1 168/71/1 1/1/1
f 12/74/1 11/55/1 183/177/1
f 175/178/1 176/179/1 12/74/1
f 176/179/1 177/180/1 12/74/1
f 12/74/1 183/177/1 175/178/1
f 13/111/1 14/110/1 184/181/1
f 184/181/1 12/74/1 13/111/1
f 12/74/1 177/180/1 178/182/1
f 182/183/1 13/111/1 12/74/1
f 181/73/1 182/183/1 12/74/1
f 12/74/1 178/182/1 179/184/1
f 12/74/1 179/184/1 180/72/1
f 27/77/1 26/124/1 18/78/1
f 18/78/1 19/185/1 193/186/1
f 193/186/1 192/187/1 18/78/1
f 192/187/1 191/188/1 18/78/1
f 191/188/1 190/189/1 18/78/1
f 190/189/1 189/190/1 18/78/1
f 189/190/1 188/191/1 18/78/1
f 188/191/1 187/192/1 18/78/1
f 187/192/1 186/193/1 18/78/1
f 186/193/1 185/76/1 18/78/1
