# Blender v2.93.5 OBJ File: ''
# www.blender.org
mtllib anticline_bb_L_6.mtl
o anticline_joined_bb.008_anticline_joined_bb.009
v 0.010008 -0.191988 -0.010000
v 0.255008 -0.191988 -0.010000
v 0.010008 -0.191988 -0.255000
v 0.010008 -0.191988 -0.500000
v 0.255008 -0.191988 -0.255000
v 0.500008 -0.191988 -0.010000
v 0.255008 -0.191988 -0.500000
v 0.500008 -0.191988 -0.255000
v 0.500008 -0.191988 -0.500000
v 0.745008 -0.191988 -0.010000
v 0.745008 -0.191988 -0.255000
v 0.990008 -0.191988 -0.010000
v 0.745008 -0.191988 -0.500000
v 0.990008 -0.191988 -0.255000
v 0.990008 -0.191988 -0.500000
v 0.745008 -0.191987 -0.745000
v 0.990008 -0.191987 -0.745000
v 0.990008 -0.191987 -0.990000
v 0.745008 -0.191987 -0.990000
v 0.500008 -0.191987 -0.990000
v 0.500008 -0.191987 -0.745000
v 0.255008 -0.191987 -0.990000
v 0.010008 -0.191987 -0.990000
v 0.255008 -0.191987 -0.745000
v 0.010008 -0.191987 -0.745000
vt 0.000000 0.000000
vt 0.000000 0.000000
vt 0.000000 0.000000
vt 0.000000 0.000000
vt 0.000000 0.000000
vt 0.000000 0.000000
vt 0.000000 0.000000
vt 0.000000 0.000000
vt 0.000000 0.000000
vt 0.000000 0.000000
vt 0.000000 0.000000
vt 0.000000 0.000000
vt 0.000000 0.000000
vt 0.000000 0.000000
vt 0.000000 0.000000
vt 0.000000 0.000000
vt 0.000000 0.000000
vt 0.000000 0.000000
vt 0.000000 0.000000
vt 0.000000 0.000000
vt 0.000000 0.000000
vt 0.000000 0.000000
vt 0.000000 0.000000
vt 0.000000 0.000000
vt 0.000000 0.000000
vn 0.0000 1.0000 0.0000
usemtl Default_OBJ.001
s off
f 2/1/1 3/2/1 1/3/1
f 5/4/1 4/5/1 3/2/1
f 2/1/1 5/4/1 3/2/1
f 5/4/1 7/6/1 4/5/1
f 6/7/1 8/8/1 5/4/1
f 6/7/1 5/4/1 2/1/1
f 5/4/1 8/8/1 7/6/1
f 11/9/1 9/10/1 8/8/1
f 8/8/1 9/10/1 7/6/1
f 10/11/1 8/8/1 6/7/1
f 10/11/1 11/9/1 8/8/1
f 12/12/1 14/13/1 11/9/1
f 12/12/1 11/9/1 10/11/1
f 11/9/1 13/14/1 9/10/1
f 11/9/1 14/13/1 13/14/1
f 14/13/1 15/15/1 13/14/1
f 13/14/1 15/15/1 16/16/1
f 15/15/1 17/17/1 16/16/1
f 17/17/1 18/18/1 19/19/1
f 16/16/1 17/17/1 19/19/1
f 16/16/1 19/19/1 20/20/1
f 21/21/1 20/20/1 22/22/1
f 21/21/1 16/16/1 20/20/1
f 24/23/1 22/22/1 23/24/1
f 24/23/1 21/21/1 22/22/1
f 9/10/1 24/23/1 7/6/1
f 9/10/1 21/21/1 24/23/1
f 24/23/1 23/24/1 25/25/1
f 7/6/1 24/23/1 25/25/1
f 7/6/1 25/25/1 4/5/1
f 9/10/1 13/14/1 21/21/1
f 21/21/1 13/14/1 16/16/1
