# Blender v2.93.5 OBJ File: ''
# www.blender.org
mtllib anticline_bb_L_3.mtl
o anticline_joined_bb.005_anticline_joined_bb.006
v 0.745008 1.048978 -0.990000
v 0.500008 1.048978 -0.990000
v 0.990008 1.048978 -0.990000
v 0.745008 1.048977 -0.745000
v 0.500008 1.048977 -0.745000
v 0.500008 1.048977 -0.500000
v 0.255008 1.048977 -0.745000
v 0.255008 1.048977 -0.500000
v 0.010008 1.048977 -0.500000
v 0.255008 1.048977 -0.255000
v 0.010008 1.048977 -0.255000
v 0.010008 1.048977 -0.010000
v 0.255008 1.048977 -0.010000
v 0.500008 1.048977 -0.010000
v 0.500008 1.048977 -0.255000
v 0.745008 1.048977 -0.500000
v 0.745008 1.048977 -0.255000
v 0.990008 1.048977 -0.255000
v 0.745008 1.048977 -0.010000
v 0.990008 1.048977 -0.500000
v 0.990008 1.048977 -0.745000
v 0.990008 1.048977 -0.010000
v 0.010008 1.048977 -0.745000
v 0.255008 1.048978 -0.990000
v 0.010008 1.048978 -0.990000
vt 0.000000 0.000000
vt 0.000000 0.000000
vt 0.000000 0.000000
vt 0.000000 0.000000
vt 0.000000 0.000000
vt 0.000000 0.000000
vt 0.000000 0.000000
vt 0.000000 0.000000
vt 0.000000 0.000000
vt 0.000000 0.000000
vt 0.000000 0.000000
vt 0.000000 0.000000
vt 0.000000 0.000000
vt 0.000000 0.000000
vt 0.000000 0.000000
vt 0.000000 0.000000
vt 0.000000 0.000000
vt 0.000000 0.000000
vt 0.000000 0.000000
vt 0.000000 0.000000
vt 0.000000 0.000000
vt 0.000000 0.000000
vt 0.000000 0.000000
vt 0.000000 0.000000
vt 0.000000 0.000000
vn 0.0000 -1.0000 -0.0000
usemtl Default_OBJ.001
s off
f 5/1/1 2/2/1 1/3/1
f 4/4/1 1/3/1 3/5/1
f 4/4/1 5/1/1 1/3/1
f 6/6/1 5/1/1 4/4/1
f 6/6/1 8/7/1 5/1/1
f 5/1/1 7/8/1 2/2/1
f 5/1/1 8/7/1 7/8/1
f 10/9/1 8/7/1 6/6/1
f 8/7/1 9/10/1 7/8/1
f 11/11/1 9/10/1 8/7/1
f 10/9/1 11/11/1 8/7/1
f 12/12/1 11/11/1 10/9/1
f 12/12/1 10/9/1 13/13/1
f 13/13/1 15/14/1 14/15/1
f 13/13/1 10/9/1 15/14/1
f 17/16/1 15/14/1 16/17/1
f 15/14/1 6/6/1 16/17/1
f 14/15/1 15/14/1 17/16/1
f 10/9/1 6/6/1 15/14/1
f 19/18/1 17/16/1 18/19/1
f 17/16/1 20/20/1 18/19/1
f 14/15/1 17/16/1 19/18/1
f 17/16/1 16/17/1 20/20/1
f 16/17/1 21/21/1 20/20/1
f 16/17/1 4/4/1 21/21/1
f 4/4/1 3/5/1 21/21/1
f 19/18/1 18/19/1 22/22/1
f 6/6/1 4/4/1 16/17/1
f 9/10/1 23/23/1 7/8/1
f 7/8/1 23/23/1 24/24/1
f 23/23/1 25/25/1 24/24/1
f 7/8/1 24/24/1 2/2/1
