# Blender v2.93.5 OBJ File: ''
# www.blender.org
mtllib anticline_bb_L_4.mtl
o anticline_joined_bb.006_anticline_joined_bb.007
v 0.010008 -0.191988 -0.010000
v 0.255008 -0.191988 -0.010000
v 0.255008 0.118253 -0.010000
v 0.010008 0.118253 -0.010000
v 0.010008 0.428494 -0.010000
v 0.255008 0.428494 -0.010000
v 0.500008 0.428494 -0.010000
v 0.500008 0.738735 -0.010000
v 0.255008 0.738735 -0.010000
v 0.500008 1.048977 -0.010000
v 0.255008 1.048977 -0.010000
v 0.010008 0.738735 -0.010000
v 0.010008 1.048977 -0.010000
v 0.745008 1.048977 -0.010000
v 0.990008 1.048977 -0.010000
v 0.745008 0.738735 -0.010000
v 0.745008 0.428494 -0.010000
v 0.990008 0.738735 -0.010000
v 0.990008 0.428494 -0.010000
v 0.745008 0.118253 -0.010000
v 0.990008 0.118253 -0.010000
v 0.990008 -0.191988 -0.010000
v 0.745008 -0.191988 -0.010000
v 0.500008 -0.191988 -0.010000
v 0.500008 0.118253 -0.010000
vt 0.000000 0.000000
vt 0.000000 0.000000
vt 0.000000 0.000000
vt 0.000000 0.000000
vt 0.000000 0.000000
vt 0.000000 0.000000
vt 0.000000 0.000000
vt 0.000000 0.000000
vt 0.000000 0.000000
vt 0.000000 0.000000
vt 0.000000 0.000000
vt 0.000000 0.000000
vt 0.000000 0.000000
vt 0.000000 0.000000
vt 0.000000 0.000000
vt 0.000000 0.000000
vt 0.000000 0.000000
vt 0.000000 0.000000
vt 0.000000 0.000000
vt 0.000000 0.000000
vt 0.000000 0.000000
vt 0.000000 0.000000
vt 0.000000 0.000000
vt 0.000000 0.000000
vt 0.000000 0.000000
vn 0.0000 0.0000 -1.0000
usemtl Default_OBJ.001
s off
f 1/1/1 3/2/1 2/3/1
f 1/1/1 4/4/1 3/2/1
f 4/4/1 5/5/1 6/6/1
f 3/2/1 4/4/1 6/6/1
f 6/6/1 5/5/1 9/7/1
f 3/2/1 6/6/1 7/8/1
f 7/8/1 6/6/1 8/9/1
f 8/9/1 6/6/1 9/7/1
f 5/5/1 12/10/1 9/7/1
f 8/9/1 9/7/1 10/11/1
f 9/7/1 11/12/1 10/11/1
f 9/7/1 12/10/1 11/12/1
f 12/10/1 13/13/1 11/12/1
f 8/9/1 10/11/1 14/14/1
f 16/15/1 14/14/1 15/16/1
f 16/15/1 8/9/1 14/14/1
f 7/8/1 16/15/1 17/17/1
f 7/8/1 8/9/1 16/15/1
f 16/15/1 15/16/1 18/18/1
f 17/17/1 16/15/1 18/18/1
f 17/17/1 18/18/1 19/19/1
f 20/20/1 19/19/1 21/21/1
f 20/20/1 17/17/1 19/19/1
f 23/22/1 21/21/1 22/23/1
f 23/22/1 20/20/1 21/21/1
f 24/24/1 20/20/1 23/22/1
f 2/3/1 25/25/1 24/24/1
f 24/24/1 25/25/1 20/20/1
f 3/2/1 7/8/1 25/25/1
f 25/25/1 7/8/1 17/17/1
f 20/20/1 25/25/1 17/17/1
f 2/3/1 3/2/1 25/25/1
